<svg width="1200" height="920" viewBox="0 0 1200 920" fill="none" xmlns="http://www.w3.org/2000/svg">
  <rect width="1200" height="920" rx="48" fill="#F4EEE6"/>
  <rect x="104" y="54" width="992" height="812" rx="44" fill="#FFF9F2" stroke="#E6D9CA"/>
  <rect x="184" y="116" width="832" height="118" rx="30" fill="#F7E3D8"/>
  <rect x="230" y="152" width="278" height="18" rx="9" fill="#1C2730"/>
  <rect x="230" y="192" width="164" height="12" rx="6" fill="#66707A"/>
  <rect x="184" y="274" width="832" height="126" rx="30" fill="#1C2730"/>
  <rect x="230" y="316" width="350" height="42" rx="21" fill="#FFF9F2"/>
  <rect x="836" y="304" width="134" height="66" rx="22" fill="#C95E29"/>
  <rect x="184" y="438" width="394" height="328" rx="30" fill="#FFFDF9" stroke="#E6D9CA"/>
  <rect x="622" y="438" width="394" height="328" rx="30" fill="#FFFDF9" stroke="#E6D9CA"/>
  <rect x="224" y="480" width="116" height="14" rx="7" fill="#C95E29"/>
  <rect x="224" y="518" width="314" height="20" rx="10" fill="#E8DED1"/>
  <rect x="224" y="554" width="280" height="20" rx="10" fill="#E8DED1"/>
  <rect x="224" y="590" width="298" height="20" rx="10" fill="#E8DED1"/>
  <rect x="662" y="480" width="116" height="14" rx="7" fill="#C95E29"/>
  <circle cx="712" cy="574" r="74" fill="#F7E3D8"/>
  <rect x="810" y="534" width="152" height="18" rx="9" fill="#1C2730"/>
  <rect x="810" y="570" width="120" height="14" rx="7" fill="#66707A"/>
  <rect x="662" y="660" width="300" height="18" rx="9" fill="#E8DED1"/>
  <text x="116" y="86" fill="#8B5C3F" font-family="Arial, sans-serif" font-size="28" font-weight="700">Gomi Navi</text>
</svg>
