<svg width="1200" height="920" viewBox="0 0 1200 920" fill="none" xmlns="http://www.w3.org/2000/svg">
  <rect width="1200" height="920" rx="48" fill="#F4EEE6"/>
  <rect x="44" y="44" width="1112" height="832" rx="36" fill="#FFF9F2" stroke="#E6D9CA"/>
  <rect x="88" y="98" width="230" height="724" rx="24" fill="#1C2730"/>
  <rect x="118" y="148" width="170" height="16" rx="8" fill="#C95E29"/>
  <rect x="118" y="194" width="142" height="12" rx="6" fill="#5E6A75"/>
  <rect x="118" y="230" width="158" height="12" rx="6" fill="#5E6A75"/>
  <rect x="118" y="266" width="130" height="12" rx="6" fill="#5E6A75"/>
  <rect x="348" y="98" width="764" height="160" rx="28" fill="#F7E3D8"/>
  <rect x="388" y="140" width="320" height="18" rx="9" fill="#1C2730"/>
  <rect x="388" y="180" width="208" height="12" rx="6" fill="#6E7780"/>
  <rect x="866" y="136" width="188" height="82" rx="22" fill="#1C2730"/>
  <rect x="894" y="164" width="132" height="14" rx="7" fill="#FFF9F2"/>
  <rect x="348" y="286" width="242" height="196" rx="28" fill="#FFFDF9" stroke="#E6D9CA"/>
  <rect x="622" y="286" width="242" height="196" rx="28" fill="#FFFDF9" stroke="#E6D9CA"/>
  <rect x="896" y="286" width="216" height="196" rx="28" fill="#FFFDF9" stroke="#E6D9CA"/>
  <rect x="380" y="326" width="116" height="14" rx="7" fill="#C95E29"/>
  <rect x="380" y="362" width="146" height="54" rx="20" fill="#1C2730"/>
  <rect x="654" y="326" width="104" height="14" rx="7" fill="#C95E29"/>
  <rect x="654" y="362" width="146" height="54" rx="20" fill="#1C2730"/>
  <rect x="928" y="326" width="104" height="14" rx="7" fill="#C95E29"/>
  <rect x="928" y="362" width="116" height="54" rx="20" fill="#1C2730"/>
  <rect x="348" y="514" width="764" height="308" rx="28" fill="#FFFDF9" stroke="#E6D9CA"/>
  <rect x="382" y="554" width="220" height="14" rx="7" fill="#1C2730"/>
  <rect x="382" y="594" width="698" height="22" rx="11" fill="#EDE4D8"/>
  <rect x="382" y="632" width="698" height="22" rx="11" fill="#EDE4D8"/>
  <rect x="382" y="670" width="698" height="22" rx="11" fill="#EDE4D8"/>
  <rect x="382" y="708" width="526" height="22" rx="11" fill="#EDE4D8"/>
  <text x="88" y="76" fill="#8B5C3F" font-family="Arial, sans-serif" font-size="28" font-weight="700">Security Manager App</text>
</svg>
