<svg width="1200" height="920" viewBox="0 0 1200 920" fill="none" xmlns="http://www.w3.org/2000/svg">
  <rect width="1200" height="920" rx="48" fill="#F4EEE6"/>
  <rect x="64" y="48" width="1072" height="824" rx="36" fill="#FFF9F2" stroke="#E6D9CA"/>
  <rect x="118" y="96" width="964" height="116" rx="28" fill="#1C2730"/>
  <rect x="156" y="132" width="302" height="18" rx="9" fill="#FFF9F2"/>
  <rect x="156" y="172" width="196" height="12" rx="6" fill="#D4C9BE"/>
  <rect x="832" y="122" width="196" height="64" rx="22" fill="#C95E29"/>
  <rect x="118" y="244" width="420" height="574" rx="30" fill="#FFFDF9" stroke="#E6D9CA"/>
  <rect x="562" y="244" width="520" height="574" rx="30" fill="#FFFDF9" stroke="#E6D9CA"/>
  <rect x="154" y="286" width="118" height="14" rx="7" fill="#C95E29"/>
  <rect x="154" y="324" width="348" height="74" rx="24" fill="#F5E9DC"/>
  <rect x="154" y="418" width="348" height="74" rx="24" fill="#F5E9DC"/>
  <rect x="154" y="512" width="348" height="74" rx="24" fill="#F5E9DC"/>
  <rect x="154" y="606" width="348" height="74" rx="24" fill="#F5E9DC"/>
  <rect x="598" y="286" width="162" height="14" rx="7" fill="#C95E29"/>
  <rect x="598" y="328" width="448" height="94" rx="28" fill="#1C2730"/>
  <rect x="632" y="362" width="184" height="16" rx="8" fill="#FFF9F2"/>
  <rect x="632" y="446" width="448" height="146" rx="28" fill="#F5E9DC"/>
  <circle cx="666" cy="496" r="20" fill="#C95E29"/>
  <rect x="706" y="480" width="280" height="14" rx="7" fill="#1C2730"/>
  <rect x="706" y="514" width="214" height="12" rx="6" fill="#5E6A75"/>
  <rect x="632" y="626" width="414" height="136" rx="28" fill="#F8F1E8"/>
  <rect x="664" y="660" width="162" height="14" rx="7" fill="#C95E29"/>
  <rect x="664" y="698" width="330" height="18" rx="9" fill="#E2D6C8"/>
  <text x="94" y="80" fill="#8B5C3F" font-family="Arial, sans-serif" font-size="28" font-weight="700">Shopping List + Inventory</text>
</svg>
